# xmcd CD database file
#
# Track frame offsets:
#	150
#	20010
#	32694
#	53737
#	72711
#	93583
#	113027
#	138886
#	159845
#	177112
#
# Disc length: 2652 seconds
#
# Revision: 2
# Processed by: cddbd v1.5.2PL0 Copyright (c) Steve Scherf et al.
# Submitted via: CDex 1.70beta2
#
DISCID=7f0a5a0a
DTITLE=Various Artist - Into the Groove Vol12
DYEAR=1998
DGENRE=Rap
TTITLE0=Fonky Family - Une seule fois
TTITLE1=Kartel double detente - Kambriolage
TTITLE2=Non-phixion - 5 boros
TTITLE3=Funkdoobiest - Doobie knows
TTITLE4=Luniz - Is it kool ?
TTITLE5=Mafia underground - Luxe and party
TTITLE6=Aktivist feat M Widi Driver Solo/ Confonds pas
TTITLE7=Tout.Simplement.Noir - De la kapitale
TTITLE8=Bambi Cruz - Jungle Vibes
TTITLE9=Jon B - Don't say
EXTD=YEAR: 1998
EXTT0=
EXTT1=
EXTT2=
EXTT3=
EXTT4=
EXTT5=
EXTT6=
EXTT7=
EXTT8=
EXTT9=
PLAYORDER=
